<svg xmlns="http://www.w3.org/2000/svg" viewBox="0 0 256 256" width="256" height="256">
  <defs>
    <clipPath id="hx">
      <polygon points="73,36 183,36 238,128 183,220 73,220 18,128"/>
    </clipPath>
  </defs>

  <polygon points="73,36 183,36 238,128 183,220 73,220 18,128"
           fill="#12141e" stroke="#6070d0" stroke-width="5"/>

  <g clip-path="url(#hx)">
    <line x1="128" y1="40" x2="128" y2="216" stroke="#2a2d3e" stroke-width="1.5"/>
    <line x1="22"  y1="128" x2="234" y2="128" stroke="#2a2d3e" stroke-width="1.5"/>
    <line x1="55"  y1="61"  x2="201" y2="195" stroke="#2a2d3e" stroke-width="1" stroke-dasharray="5,5"/>
    <line x1="201" y1="61"  x2="55"  y2="195" stroke="#2a2d3e" stroke-width="1" stroke-dasharray="5,5"/>

    <circle cx="128" cy="128" r="65" fill="none" stroke="#3a3f60" stroke-width="1.5"/>
    <circle cx="128" cy="128" r="46" fill="none" stroke="#3a3f60" stroke-width="1.5"/>
    <circle cx="128" cy="128" r="27" fill="none" stroke="#3a3f60" stroke-width="1.5"/>

    <polygon fill="#6070d0" fill-opacity="0.18" stroke="none"
      points="128,63 139,64.5 149.5,68.75 158.25,75.5 164.4,84 168.9,93.75
              170.25,103.6 169,113.1 165.5,121.4 160.5,128 154.75,132.1
              148.1,135.4 142.1,136.1 137.4,135.5 133.9,133.9 130.75,131.75
              129.1,129.9 128.1,128.5 128,128
              127.9,128.5 126.9,129.9 125.25,131.75 123.1,133.9
              118.6,135.5 113.9,136.1 107.9,135.4 101.5,132.1
              95.5,128 90.5,121.4 87,113.1 85.75,103.6
              87.1,93.75 91.6,84 97.75,75.5 106.5,68.75 117,64.5 128,63"/>

    <polygon fill="none" stroke="#6070d0" stroke-width="3" stroke-linejoin="round"
      points="128,63 139,64.5 149.5,68.75 158.25,75.5 164.4,84 168.9,93.75
              170.25,103.6 169,113.1 165.5,121.4 160.5,128 154.75,132.1
              148.1,135.4 142.1,136.1 137.4,135.5 133.9,133.9 130.75,131.75
              129.1,129.9 128.1,128.5 128,128
              127.9,128.5 126.9,129.9 125.25,131.75 123.1,133.9
              118.6,135.5 113.9,136.1 107.9,135.4 101.5,132.1
              95.5,128 90.5,121.4 87,113.1 85.75,103.6
              87.1,93.75 91.6,84 97.75,75.5 106.5,68.75 117,64.5 128,63"/>

    <circle cx="128" cy="63"  r="5" fill="#74c0fc"/>
    <circle cx="128" cy="128" r="5" fill="#6070d0"/>
  </g>

  <polygon points="73,36 183,36 238,128 183,220 73,220 18,128"
           fill="none" stroke="#6070d0" stroke-width="5"/>
</svg>
